<svg version="1.1" id="Layer_1" xmlns="http://www.w3.org/2000/svg" xmlns:xlink="http://www.w3.org/1999/xlink" x="0px" y="0px"
	 width="100%" viewBox="0 0 2560 1792" enable-background="new 0 0 2560 1792" xml:space="preserve">
<path fill="#009440" opacity="1.000000" stroke="none" 
	d="
M1812.000000,1794.000000 
	C1208.069092,1794.000000 605.138306,1794.000000 2.103728,1794.000000 
	C2.103728,1196.804321 2.103728,599.608643 2.103728,2.206481 
	C855.097778,2.206481 1708.195557,2.206481 2561.646729,2.206481 
	C2561.646729,599.333191 2561.646729,1196.666626 2561.646729,1794.000000 
	C2312.274658,1794.000000 2062.637451,1794.000000 1812.000000,1794.000000 
M507.565826,1081.427734 
	C766.128967,1246.519775 1024.692139,1411.611694 1283.551147,1576.892700 
	C1637.509155,1350.871216 1990.961182,1125.172852 2345.932129,898.504517 
	C1991.103149,671.924500 1637.442749,446.090698 1283.534058,220.098358 
	C929.454163,446.200134 575.786194,672.038818 221.136017,898.504700 
	C317.140411,959.799255 411.753784,1020.205627 507.565826,1081.427734 
z"/>
<path fill="#FECB00" opacity="1.000000" stroke="none" 
	d="
M506.966492,1081.019897 
	C411.753784,1020.205627 317.140411,959.799255 221.136017,898.504700 
	C575.786194,672.038818 929.454163,446.200134 1283.534058,220.098358 
	C1637.442749,446.090698 1991.103149,671.924500 2345.932129,898.504517 
	C1990.961182,1125.172852 1637.509155,1350.871216 1283.551147,1576.892700 
	C1024.692139,1411.611694 766.128967,1246.519775 506.966492,1081.019897 
M1727.500732,958.668518 
	C1734.905273,903.585510 1732.307251,848.936584 1719.459595,794.905212 
	C1665.044434,566.060974 1443.254761,417.983704 1210.718262,456.584534 
	C1087.073120,477.109467 989.052795,540.292786 916.148804,642.190552 
	C899.456665,665.521179 885.050903,690.269531 873.528870,718.065613 
	C863.609680,739.832581 855.379089,762.181274 849.665894,787.084412 
	C830.715210,860.835327 830.424011,934.761292 849.233521,1008.447021 
	C909.119324,1243.047485 1141.351807,1386.793457 1378.308228,1336.330200 
	C1531.510498,1303.703613 1658.474487,1190.276367 1708.022217,1041.689453 
	C1709.159790,1038.278076 1709.603516,1034.635254 1711.587646,1030.136230 
	C1718.990112,1007.486206 1724.350708,984.387695 1727.500732,958.668518 
z"/>
<path fill="#312781" opacity="1.000000" stroke="none" 
	d="
M1710.370850,1031.100464 
	C1709.603516,1034.635254 1709.159790,1038.278076 1708.022217,1041.689453 
	C1658.474487,1190.276367 1531.510498,1303.703613 1378.308228,1336.330200 
	C1141.351807,1386.793457 909.119324,1243.047485 849.233521,1008.447021 
	C830.424011,934.761292 830.715210,860.835327 850.764526,786.334351 
	C888.621094,779.051331 925.665710,774.747070 962.902527,772.466675 
	C1051.102173,767.065186 1138.613159,772.660583 1225.373291,789.721313 
	C1372.349854,818.622986 1506.533691,877.023926 1627.611816,965.073547 
	C1656.124634,985.808472 1682.832642,1009.025391 1710.370850,1031.100464 
M959.929810,1015.782959 
	C962.221375,1017.113708 964.512939,1018.444458 967.623169,1020.250671 
	C966.626892,1015.347107 965.927734,1011.906067 965.306030,1008.846191 
	C968.344849,1006.020630 970.823975,1003.715515 974.075623,1000.692139 
	C968.961975,1000.229187 965.420471,999.908569 962.117126,999.609497 
	C960.412781,995.831299 958.950256,992.589294 957.157593,988.615234 
	C955.517944,992.832642 954.223816,996.161438 952.860718,999.667480 
	C949.064392,1000.045471 945.469543,1000.403381 940.622681,1000.885925 
	C944.498474,1004.326355 947.151611,1006.681396 949.594727,1008.850098 
	C948.941650,1012.614624 948.381104,1015.845947 947.741272,1019.534485 
	C952.098572,1017.688904 955.318481,1016.325012 959.929810,1015.782959 
M1104.351074,1120.346924 
	C1102.243286,1123.490234 1100.135498,1126.633667 1098.088867,1129.685791 
	C1094.701782,1130.051880 1091.397705,1130.408936 1087.019775,1130.881958 
	C1090.822144,1134.240967 1093.486450,1136.594727 1095.915039,1138.740112 
	C1095.158569,1142.684204 1094.518066,1146.023193 1093.689209,1150.345093 
	C1098.073242,1147.758789 1101.135010,1145.952515 1103.787231,1144.387939 
	C1107.327881,1146.375244 1110.212280,1147.994141 1113.875977,1150.050537 
	C1112.925659,1145.232178 1112.243652,1141.774414 1111.628662,1138.655884 
	C1114.553589,1135.902954 1116.991333,1133.608521 1120.439941,1130.362671 
	C1115.292114,1130.123047 1112.009644,1129.970215 1108.372559,1129.800903 
	C1107.277832,1126.880981 1106.246826,1124.131104 1104.351074,1120.346924 
M1610.290283,1053.892334 
	C1611.474731,1053.298950 1612.659058,1052.705444 1613.843506,1052.112061 
	C1613.480225,1051.504150 1613.116943,1050.896362 1612.753784,1050.288452 
	C1609.318970,1049.974121 1605.884155,1049.659790 1602.284058,1049.330322 
	C1600.643433,1045.771729 1599.038208,1042.290039 1597.117920,1038.124878 
	C1595.462280,1042.371460 1594.156494,1045.720459 1592.741821,1049.348877 
	C1589.034546,1049.648438 1585.492798,1049.934692 1580.944824,1050.302246 
	C1584.463989,1053.609985 1587.260742,1056.238770 1589.821533,1058.645752 
	C1588.907227,1062.396973 1588.135986,1065.561279 1587.018799,1070.145142 
	C1591.159546,1067.580566 1594.147827,1065.729858 1597.254395,1063.805786 
	C1600.571899,1065.691162 1603.780029,1067.514282 1607.396362,1069.569580 
	C1607.706177,1064.024170 1601.854614,1058.572632 1610.290283,1053.892334 
M912.116699,811.666687 
	C908.871826,811.882019 905.626953,812.097351 901.015137,812.403442 
	C904.689941,815.746765 907.485535,818.290222 910.036377,820.610962 
	C909.273804,824.533203 908.634766,827.819946 907.789490,832.167175 
	C912.099670,829.577820 915.141418,827.750488 917.876587,826.107361 
	C921.346985,828.137146 924.245361,829.832336 928.122009,832.099731 
	C927.072388,827.286682 926.320801,823.840332 925.423706,819.726685 
	C928.460938,817.762024 931.423096,815.845886 934.385254,813.929749 
	C933.883545,813.408020 933.381836,812.886230 932.880127,812.364502 
	C929.338440,812.032776 925.796753,811.701050 922.372314,811.380310 
	C921.558411,809.402954 920.985840,807.851135 920.287476,806.358154 
	C919.521118,804.719666 918.638855,803.135376 917.417236,800.773682 
	C915.811401,804.854858 914.613647,807.899048 912.116699,811.666687 
M1297.438110,1093.827148 
	C1294.470947,1093.681030 1291.503784,1093.534912 1288.456909,1093.384766 
	C1286.744141,1089.674927 1285.134521,1086.188599 1283.193481,1081.984375 
	C1281.540161,1086.310425 1280.254639,1089.673950 1278.963745,1093.051880 
	C1275.202026,1093.519287 1271.801392,1093.941772 1267.313965,1094.499390 
	C1270.798706,1097.697021 1273.410156,1100.093384 1275.803101,1102.289307 
	C1275.022705,1106.095825 1274.344971,1109.401978 1273.428833,1113.870972 
	C1277.754272,1111.256836 1280.764648,1109.437500 1283.570801,1107.741577 
	C1287.079956,1109.793213 1290.049561,1111.529297 1294.115234,1113.906372 
	C1292.877686,1109.220703 1291.969849,1105.782959 1291.166504,1102.741455 
	C1294.041992,1099.601929 1296.420532,1097.004883 1297.438110,1093.827148 
M1287.088135,979.334229 
	C1288.364014,980.047241 1289.640015,980.760315 1292.100098,982.135132 
	C1291.202881,977.984436 1290.605103,975.218323 1289.854004,971.743530 
	C1291.784302,969.918945 1293.702881,968.105347 1295.891846,966.036133 
	C1292.920898,965.686096 1290.360962,965.384521 1288.029419,965.109863 
	C1286.331177,962.127441 1284.844238,959.515991 1283.119873,956.487549 
	C1281.546387,959.974060 1280.346802,962.631836 1279.327393,964.890747 
	C1276.130249,965.495544 1273.485962,965.995728 1270.248657,966.608154 
	C1273.008179,969.023315 1274.979980,970.749023 1276.818970,972.358521 
	C1276.378052,975.450562 1275.982910,978.222595 1275.639160,980.633423 
	C1279.363525,979.861633 1282.650513,979.180420 1287.088135,979.334229 
M1410.046753,1210.841675 
	C1412.651489,1209.658081 1415.256226,1208.474609 1417.655762,1207.384155 
	C1420.419434,1208.663330 1422.869019,1209.796997 1427.393555,1211.891113 
	C1422.330933,1204.304077 1425.016968,1200.009155 1430.877808,1195.470215 
	C1421.323608,1198.723633 1420.656616,1190.694824 1416.452393,1185.845703 
	C1416.063843,1193.866943 1411.586670,1196.228516 1403.462891,1195.690063 
	C1407.253296,1198.762207 1409.438232,1200.533081 1411.243896,1201.996582 
	C1410.567993,1205.105103 1410.080200,1207.348267 1410.046753,1210.841675 
M1500.084473,1196.374268 
	C1500.084473,1197.550171 1500.084473,1198.725952 1500.084473,1200.391357 
	C1503.275635,1198.717163 1505.817871,1197.383423 1508.004517,1196.236206 
	C1510.770020,1197.662842 1512.934204,1198.779297 1516.138794,1200.432495 
	C1515.386230,1196.656860 1514.884644,1194.141235 1514.280029,1191.108276 
	C1516.580078,1189.409180 1518.963135,1187.648682 1522.716675,1184.875732 
	C1517.713135,1184.287354 1514.849609,1183.950684 1512.004395,1183.616089 
	C1510.626099,1180.927246 1509.345337,1178.428589 1507.675903,1175.171631 
	C1505.974365,1178.746216 1504.756958,1181.303467 1503.604736,1183.724121 
	C1500.494507,1184.006714 1497.883667,1184.243896 1494.283813,1184.570923 
	C1496.536499,1186.711792 1498.528442,1188.021118 1499.648926,1189.861084 
	C1500.492310,1191.245972 1500.218506,1193.311279 1500.084473,1196.374268 
M1608.341309,1101.193970 
	C1608.081421,1102.707764 1607.821411,1104.221436 1607.471680,1106.258301 
	C1615.609863,1102.379883 1615.609863,1102.379883 1623.464966,1105.857788 
	C1623.234619,1102.868652 1622.001709,1099.523438 1623.083496,1097.308472 
	C1624.141479,1095.142090 1627.559204,1094.128052 1629.941162,1092.608276 
	C1625.268677,1090.264526 1621.929443,1090.438232 1619.687012,1088.954346 
	C1617.703735,1087.641846 1616.941650,1084.483765 1615.290649,1081.510742 
	C1613.777832,1084.991699 1612.741821,1087.375366 1611.740112,1089.680176 
	C1608.601196,1090.046021 1605.898560,1090.361084 1601.908936,1090.826172 
	C1604.147217,1092.861816 1605.549072,1093.775269 1606.443726,1095.045776 
	C1607.460815,1096.490356 1608.024658,1098.254028 1608.341309,1101.193970 
M1581.338379,1126.095825 
	C1579.501343,1126.227539 1577.664307,1126.359375 1574.431396,1126.591309 
	C1577.498169,1129.450317 1579.581909,1131.392822 1581.645386,1133.316406 
	C1581.163330,1136.245483 1580.720093,1138.938965 1580.112183,1142.633179 
	C1583.813232,1140.697144 1586.303955,1139.394409 1588.443848,1138.275024 
	C1591.214600,1139.825562 1593.356812,1141.024292 1596.663818,1142.875000 
	C1595.858765,1138.672241 1595.326660,1135.894287 1594.716919,1132.710449 
	C1597.249390,1131.150879 1599.675049,1129.657104 1602.100830,1128.163330 
	C1601.601318,1127.640869 1601.101929,1127.118530 1600.602417,1126.596191 
	C1597.724365,1126.231567 1594.846313,1125.866821 1592.196411,1125.531006 
	C1590.961060,1122.830566 1589.935181,1120.587769 1588.716431,1117.923462 
	C1586.474976,1120.976196 1584.633057,1123.484863 1581.338379,1126.095825 
M1045.316772,1061.007690 
	C1049.541992,1055.409302 1053.929443,1060.078735 1058.783936,1061.926025 
	C1058.192749,1058.213867 1057.788696,1055.675903 1057.208252,1052.031128 
	C1059.195068,1050.813354 1061.708740,1049.272827 1065.864868,1046.725586 
	C1060.187134,1045.982422 1057.297974,1045.604248 1054.639648,1045.256348 
	C1053.321167,1042.319824 1052.193726,1039.808594 1050.683472,1036.445190 
	C1049.029785,1040.005127 1047.803955,1042.643921 1046.571045,1045.297852 
	C1043.639038,1045.695923 1040.902588,1046.067383 1035.724609,1046.770386 
	C1039.922485,1049.530151 1042.383789,1051.148315 1043.213867,1051.694214 
	C1043.518555,1056.290039 1043.693237,1058.924683 1045.316772,1061.007690 
M1110.046509,925.177979 
	C1113.254395,922.506836 1115.433228,925.191895 1117.907471,926.616089 
	C1118.632690,927.033508 1119.603638,927.023804 1120.890625,927.302856 
	C1120.373535,924.063354 1119.931274,921.292603 1119.466309,918.379456 
	C1121.910400,916.636902 1124.028076,915.127014 1127.597656,912.582153 
	C1122.434326,911.941772 1119.601196,911.590393 1116.862305,911.250732 
	C1115.553711,908.333801 1114.386353,905.731689 1112.908081,902.436401 
	C1111.164551,905.969177 1109.758545,908.817749 1108.505981,911.355835 
	C1105.468262,911.718201 1103.053711,912.006287 1100.639160,912.294312 
	C1107.160522,916.067200 1105.706543,922.077698 1105.146118,928.009216 
	C1107.021606,926.996094 1107.884155,926.530090 1110.046509,925.177979 
M1328.658203,1013.096008 
	C1328.266113,1015.804871 1327.874023,1018.513672 1327.346680,1022.157410 
	C1330.686768,1020.183716 1332.916016,1018.866516 1335.212280,1017.509644 
	C1337.883545,1018.975220 1340.357544,1020.332520 1343.696167,1022.164185 
	C1342.950195,1018.336243 1342.402710,1015.526794 1341.736450,1012.107727 
	C1343.907959,1010.616150 1346.062988,1009.135864 1349.767578,1006.591125 
	C1344.696167,1005.883118 1341.928223,1005.496643 1339.446655,1005.150208 
	C1337.924194,1002.075623 1336.629761,999.461365 1335.103149,996.378357 
	C1333.668579,999.685364 1332.496094,1002.387939 1331.350708,1005.028320 
	C1328.333252,1005.519348 1325.613403,1005.961914 1321.915405,1006.563660 
	C1324.471680,1008.822510 1326.182861,1010.334595 1328.658203,1013.096008 
M910.561829,1055.976685 
	C910.098083,1053.693848 909.634338,1051.411011 909.108398,1048.822266 
	C911.108398,1046.921875 913.225708,1044.910034 915.916443,1042.353394 
	C912.237183,1041.857544 909.351501,1041.468750 906.561707,1041.092773 
	C905.301514,1038.188354 904.184448,1035.613892 902.666504,1032.115479 
	C900.988098,1035.662842 899.742310,1038.296021 898.480896,1040.962036 
	C895.691650,1041.461426 893.040283,1041.936035 889.464111,1042.576294 
	C892.305115,1045.271973 894.181213,1047.052002 895.916565,1048.698608 
	C895.364380,1051.895996 894.879700,1054.702881 894.276245,1058.197266 
	C897.670105,1056.327759 900.236572,1054.914062 902.543701,1053.643066 
	C905.342590,1054.980225 907.679993,1056.096924 910.561829,1055.976685 
M1458.863892,1167.855591 
	C1459.946655,1167.866943 1461.029419,1167.878418 1462.112183,1167.889771 
	C1460.261230,1163.249146 1463.598511,1160.230469 1465.326050,1158.083252 
	C1461.734009,1155.559204 1458.617432,1153.369141 1456.072266,1151.580688 
	C1453.112061,1153.535889 1449.918213,1155.645508 1447.135620,1157.483398 
	C1448.296021,1160.702515 1449.738647,1164.704590 1451.076904,1168.416992 
	C1452.948242,1168.051514 1455.362671,1167.579956 1458.863892,1167.855591 
M1387.407593,1157.626831 
	C1388.553833,1153.955200 1389.700073,1150.283447 1391.125366,1145.718140 
	C1386.247681,1147.516113 1384.387085,1143.589966 1383.190674,1140.030029 
	C1379.464600,1142.753540 1376.152954,1145.174072 1374.002197,1146.746216 
	C1375.074097,1150.709839 1376.058350,1154.348755 1376.668579,1156.605591 
	C1380.056274,1156.868286 1383.016479,1157.097778 1387.407593,1157.626831 
M1497.302246,1231.317871 
	C1500.394531,1234.338501 1503.170166,1237.478394 1500.959473,1241.475098 
	C1505.277100,1241.475098 1509.110107,1241.475098 1512.563965,1241.475098 
	C1513.611816,1238.427490 1514.889404,1234.711060 1515.972900,1231.559570 
	C1513.135620,1229.487427 1509.755371,1227.018921 1506.132812,1224.373291 
	C1506.174683,1228.892822 1502.879761,1230.457886 1497.302246,1231.317871 
M1032.104858,1103.534790 
	C1035.769897,1100.754395 1039.413452,1101.330200 1043.664185,1104.539673 
	C1043.247803,1101.633545 1042.357422,1099.548218 1042.866455,1097.892944 
	C1043.459473,1095.963745 1045.276245,1094.410645 1045.928223,1093.540527 
	C1042.502197,1090.609131 1039.509521,1088.048706 1037.406250,1086.249146 
	C1034.496094,1088.483765 1031.363892,1090.889038 1028.027466,1093.451050 
	C1031.406128,1095.366821 1032.864014,1098.595459 1032.104858,1103.534790 
M1503.534790,1139.260864 
	C1501.096558,1140.516602 1498.658325,1141.772461 1497.384766,1142.428467 
	C1498.668945,1146.382446 1499.786377,1149.822998 1500.642334,1152.458496 
	C1504.232422,1152.458496 1507.804077,1152.458496 1511.185669,1152.458496 
	C1512.322388,1149.420044 1513.675781,1145.802490 1514.702881,1143.057251 
	C1511.577026,1140.661255 1508.498291,1138.301392 1505.312744,1135.859497 
	C1504.949829,1136.438721 1504.456665,1137.225708 1503.534790,1139.260864 
M1558.512939,1160.098389 
	C1559.331177,1156.932373 1560.149536,1153.766235 1561.127686,1149.981445 
	C1556.296021,1152.096313 1554.635010,1147.429321 1553.165649,1144.278076 
	C1549.406250,1146.950684 1546.238159,1149.203003 1543.626099,1151.059814 
	C1544.653687,1154.274414 1545.846802,1158.006592 1546.875000,1161.223267 
	C1550.499268,1161.223267 1554.547485,1161.223267 1558.512939,1160.098389 
M1237.044067,1016.868469 
	C1239.447266,1017.459900 1241.850464,1018.051392 1243.277832,1018.402649 
	C1244.785767,1014.412537 1246.171021,1010.747131 1247.367188,1007.581665 
	C1244.555298,1005.760498 1241.369263,1003.697021 1238.305664,1001.712891 
	C1235.923096,1003.368286 1232.669556,1005.628784 1229.712769,1007.683167 
	C1230.811157,1010.953308 1232.161987,1014.974792 1233.496826,1018.948975 
	C1234.055664,1018.655701 1234.937622,1018.192810 1237.044067,1016.868469 
M1411.204590,877.712708 
	C1412.559448,876.158936 1413.914307,874.605164 1414.605835,873.812073 
	C1410.907959,870.906372 1407.727295,868.407166 1404.210449,865.643738 
	C1404.227173,871.285156 1399.829590,871.959900 1396.394409,872.250854 
	C1397.805542,876.370483 1399.046265,879.993103 1400.102783,883.077637 
	C1403.495605,883.077637 1407.541016,883.077637 1411.857422,883.077637 
	C1411.536377,881.742981 1411.236938,880.498413 1411.204590,877.712708 
M1653.499878,1055.857056 
	C1652.268799,1056.058716 1651.037598,1056.260376 1650.557983,1056.338867 
	C1651.922852,1060.295654 1653.200195,1063.998901 1654.294067,1067.170166 
	C1657.699585,1067.170166 1661.603638,1067.170166 1664.662964,1067.170166 
	C1665.962036,1063.654907 1667.288940,1060.064331 1669.106445,1055.146118 
	C1661.802856,1059.465088 1662.679199,1051.553223 1659.482056,1049.692139 
	C1657.848022,1051.810791 1656.324829,1053.785889 1653.499878,1055.857056 
M1265.354004,1046.855957 
	C1265.904297,1044.392334 1266.454468,1041.928711 1267.003906,1039.468506 
	C1264.985840,1038.007202 1262.927368,1036.516602 1260.850708,1035.012695 
	C1258.947266,1036.514526 1256.782104,1038.222900 1254.765137,1039.814331 
	C1255.622437,1042.447266 1256.386719,1044.794800 1257.036743,1046.791016 
	C1259.491821,1046.961548 1261.685303,1047.114014 1265.354004,1046.855957 
M999.409119,984.074524 
	C1001.295898,984.074524 1003.182678,984.074524 1005.058044,984.074524 
	C1005.793030,981.602112 1006.511047,979.186646 1007.140198,977.070312 
	C1004.888489,975.350098 1002.787415,973.745056 1001.273193,972.588318 
	C998.901672,974.436218 996.980347,975.933350 995.303223,977.240112 
	C996.249634,979.599426 997.164917,981.881287 999.409119,984.074524 
M1287.400879,1248.882690 
	C1286.346069,1245.803833 1284.919922,1242.959839 1281.364380,1246.125488 
	C1280.322998,1247.052612 1279.675293,1250.141968 1280.369385,1250.980957 
	C1282.604004,1253.682007 1285.239746,1253.844727 1287.400879,1248.882690 
z"/>
<path fill="#312781" opacity="1.000000" stroke="none" 
	d="
M874.289307,716.987427 
	C885.050903,690.269531 899.456665,665.521179 916.148804,642.190552 
	C989.052795,540.292786 1087.073120,477.109467 1210.718262,456.584534 
	C1443.254761,417.983704 1665.044434,566.060974 1719.459595,794.905212 
	C1732.307251,848.936584 1734.905273,903.585510 1726.591309,959.237000 
	C1656.775269,902.526489 1582.371826,853.678589 1501.485962,815.034851 
	C1474.803345,802.286987 1447.243164,791.381042 1420.182129,779.411743 
	C1417.416260,778.188354 1412.674316,778.925964 1413.266357,773.473450 
	C1416.652100,771.305725 1419.385254,769.467590 1422.360840,767.466492 
	C1425.552734,769.409302 1428.541382,771.228394 1432.669800,773.741211 
	C1431.656494,768.943726 1430.931641,765.511719 1430.147705,761.799500 
	C1432.949097,759.532349 1435.637817,757.356323 1439.499634,754.230957 
	C1434.510376,753.785278 1430.975464,753.469421 1427.195801,753.131775 
	C1425.814941,749.692566 1424.484375,746.378784 1422.758179,742.079712 
	C1420.764404,746.266174 1419.109131,749.741699 1417.513184,753.092896 
	C1413.711182,753.532837 1410.195801,753.939575 1406.022827,754.422485 
	C1409.369385,757.369263 1412.052002,759.731445 1414.362793,761.766174 
	C1413.872925,766.289978 1413.458740,770.114380 1412.508301,774.738647 
	C1408.796387,774.616943 1405.552124,773.882568 1402.455200,772.746582 
	C1283.737671,729.200012 1161.062866,707.522827 1034.710815,706.378418 
	C980.985657,705.891724 927.530334,709.928650 874.289307,716.987427 
z"/>
<path fill="#F7FAF9" opacity="1.000000" stroke="none" 
	d="
M873.909058,717.526489 
	C927.530334,709.928650 980.985657,705.891724 1034.710815,706.378418 
	C1161.062866,707.522827 1283.737671,729.200012 1402.455200,772.746582 
	C1405.552124,773.882568 1408.796387,774.616943 1412.413818,774.666260 
	C1412.855713,773.793884 1412.613770,773.803101 1412.613770,773.803101 
	C1412.674316,778.925964 1417.416260,778.188354 1420.182129,779.411743 
	C1447.243164,791.381042 1474.803345,802.286987 1501.485962,815.034851 
	C1582.371826,853.678589 1656.775269,902.526489 1726.265137,960.232910 
	C1724.350708,984.387695 1718.990112,1007.486206 1710.979248,1030.618408 
	C1682.832642,1009.025391 1656.124634,985.808472 1627.611816,965.073547 
	C1506.533691,877.023926 1372.349854,818.622986 1225.373291,789.721313 
	C1138.613159,772.660583 1051.102173,767.065186 962.902527,772.466675 
	C925.665710,774.747070 888.621094,779.051331 851.062622,785.593445 
	C855.379089,762.181274 863.609680,739.832581 873.909058,717.526489 
M1451.643188,847.648132 
	C1451.643188,847.648132 1452.187256,848.169739 1452.693970,849.533203 
	C1454.055054,850.638916 1455.416016,851.744629 1457.479858,853.421265 
	C1460.682983,846.397034 1463.500244,840.219116 1466.575195,833.476257 
	C1460.986572,831.239868 1456.463989,829.430054 1452.476318,827.834290 
	C1446.609619,831.957153 1453.664429,834.156006 1452.955322,837.174988 
	C1448.031250,839.596130 1443.649292,839.613159 1439.962524,835.532349 
	C1435.320190,830.393921 1436.807007,820.646545 1442.837280,815.947571 
	C1448.776978,811.319153 1455.056396,812.587524 1459.166016,820.055542 
	C1461.188843,823.731140 1463.548096,825.225159 1467.972778,825.557678 
	C1468.230835,816.421265 1464.725708,810.144775 1457.050659,806.544739 
	C1450.010010,803.242371 1440.856567,805.586548 1435.224976,811.891235 
	C1428.885742,818.988281 1427.231445,827.316833 1430.749634,836.055786 
	C1434.355835,845.013428 1442.025879,847.644287 1451.643188,847.648132 
M1130.852783,747.635437 
	C1130.524414,753.164368 1130.196045,758.693298 1129.886963,763.897949 
	C1135.035400,766.442932 1137.088867,764.771667 1137.410156,760.455261 
	C1138.297119,748.537415 1139.107178,736.613708 1139.874878,724.687561 
	C1139.908325,724.168457 1139.223145,723.603088 1138.592651,722.624634 
	C1135.978149,722.624634 1133.096069,722.624634 1129.843140,722.624634 
	C1126.441284,730.823975 1123.070312,738.948547 1118.900635,748.998535 
	C1116.514404,738.003540 1114.633911,729.338989 1112.721924,720.528870 
	C1108.836914,720.528870 1105.710205,720.528870 1102.165649,720.528870 
	C1100.965576,734.522339 1099.815430,747.935303 1098.622314,761.847046 
	C1101.530518,761.847046 1103.376343,761.847046 1105.577637,761.847046 
	C1106.480225,754.534973 1107.355225,747.446777 1108.230103,740.358521 
	C1108.631592,740.346130 1109.033203,740.333740 1109.434692,740.321350 
	C1111.112793,747.990356 1112.790894,755.659363 1114.348633,762.778503 
	C1119.075562,764.836365 1121.409790,763.691895 1122.810303,759.670532 
	C1124.446533,754.972046 1126.503540,750.420166 1129.169312,746.061646 
	C1129.169312,746.061646 1129.982178,746.244751 1129.982178,746.244751 
	C1129.982178,746.244751 1130.793335,746.054016 1130.852783,747.635437 
M1535.879150,856.832947 
	C1530.735474,865.956665 1525.591675,875.080322 1520.230103,884.590576 
	C1532.087524,891.220093 1542.660889,897.131653 1553.173950,903.009583 
	C1554.517944,901.349609 1555.331421,900.675110 1555.697144,899.810974 
	C1556.168213,898.698181 1556.280396,897.433472 1556.591797,896.033569 
	C1547.963013,891.003174 1539.711182,886.192444 1530.806641,881.001282 
	C1532.921509,877.585571 1534.581543,874.904480 1536.260986,872.192139 
	C1543.634277,876.128479 1550.254761,879.662903 1557.304321,883.426331 
	C1558.509766,880.800964 1559.275757,879.132751 1560.242065,877.028076 
	C1553.269897,872.991272 1546.751587,869.217285 1539.854492,865.223938 
	C1541.605835,862.522217 1542.802246,860.676758 1544.294067,858.375366 
	C1552.725830,863.050781 1560.765747,867.508911 1569.242065,872.208984 
	C1570.532593,869.451660 1571.461060,867.468018 1572.604004,865.025818 
	C1562.101074,859.095703 1552.049072,853.420166 1541.612915,847.527771 
	C1539.682373,850.581177 1538.115967,853.058594 1535.879150,856.832947 
M1055.608276,741.609070 
	C1062.453491,741.609070 1069.298584,741.609070 1075.900757,741.609070 
	C1077.459717,736.807556 1076.760132,734.333557 1071.939087,734.275513 
	C1065.742065,734.200928 1059.547729,733.917175 1052.809204,733.706604 
	C1053.178833,730.415649 1053.415161,728.310791 1053.720947,725.587524 
	C1063.564453,725.587524 1072.712891,725.587524 1081.782715,725.587524 
	C1081.782715,722.972717 1081.782715,721.067993 1081.782715,718.267578 
	C1069.694580,717.935242 1058.003662,717.552429 1045.997070,717.461853 
	C1045.425171,732.333618 1044.908691,745.766357 1044.355957,760.141113 
	C1057.726318,760.141113 1069.836670,760.141113 1082.237671,760.141113 
	C1082.237671,757.957947 1082.237671,755.871338 1082.237671,753.288818 
	C1072.106812,752.737915 1062.584229,752.220154 1051.845459,751.636169 
	C1052.599365,747.940308 1053.206665,744.962463 1055.608276,741.609070 
M970.251831,749.099243 
	C968.128967,745.741150 968.356873,743.012939 970.444946,739.189819 
	C975.110168,730.648438 970.735046,720.921814 961.835938,719.976501 
	C952.710815,719.007263 943.441895,719.650391 933.669556,721.494629 
	C934.568970,735.917114 935.411926,749.434875 936.293091,763.564819 
	C939.190247,763.244995 941.282715,763.013977 943.776978,762.738586 
	C943.776978,757.562317 943.776978,753.006287 943.776978,748.594788 
	C960.419128,744.116577 960.419128,744.116577 965.972473,761.126587 
	C969.243103,761.995789 972.169800,762.080811 971.965576,757.463501 
	C971.864197,755.171448 971.165894,752.905762 970.251831,749.099243 
M1499.456787,869.502808 
	C1497.620605,874.703125 1501.309570,874.594055 1505.276978,875.602600 
	C1506.992554,869.776733 1508.561157,864.449951 1510.296875,858.555847 
	C1510.519043,858.432739 1511.405273,857.992676 1512.240723,857.471252 
	C1524.048706,850.100952 1523.762085,838.630676 1511.469971,831.972168 
	C1505.130493,828.538147 1498.574097,825.504700 1491.562866,822.015137 
	C1484.905884,834.887573 1478.674561,846.937195 1472.052124,859.743164 
	C1474.747681,860.843872 1476.962280,861.748230 1479.220825,862.670532 
	C1481.881958,857.925842 1484.119751,853.936157 1486.321289,850.010986 
	C1502.173706,856.891174 1504.037109,856.475952 1499.456787,869.502808 
M1347.054443,793.994507 
	C1353.314697,798.779053 1347.653198,805.096069 1349.083374,811.005432 
	C1350.912109,811.356445 1352.748535,811.708923 1354.933228,812.128235 
	C1355.749634,809.219971 1356.765747,806.743713 1357.079346,804.181519 
	C1357.434937,801.276001 1357.161255,798.293396 1357.161255,795.196472 
	C1358.252319,794.322815 1359.314575,793.561707 1360.275391,792.689087 
	C1369.622314,784.199951 1367.862061,772.870422 1356.239380,768.495239 
	C1349.188843,765.841187 1341.842041,763.974304 1333.720581,761.474426 
	C1329.194214,775.138367 1324.889038,788.134705 1320.399414,801.687439 
	C1323.534302,802.548828 1325.585815,803.112549 1327.770142,803.712708 
	C1329.588623,798.833191 1331.189819,794.536926 1333.082764,789.457947 
	C1337.479980,790.871460 1341.510864,792.167236 1347.054443,793.994507 
M1628.703247,922.817383 
	C1630.981567,926.798584 1633.079590,930.898682 1635.598755,934.721008 
	C1637.413452,937.474243 1640.063354,939.686951 1641.800781,942.477051 
	C1642.679932,943.889282 1642.362671,946.046631 1642.586304,947.867126 
	C1640.494141,948.096741 1638.097900,949.092041 1636.369263,948.405823 
	C1631.982788,946.664551 1627.917358,944.000305 1627.746704,938.531738 
	C1627.586792,933.407288 1624.016357,932.521729 1619.705200,930.509949 
	C1619.111572,933.778564 1618.149658,936.027649 1618.419434,938.117676 
	C1619.575806,947.075073 1633.132935,958.062378 1642.263672,957.755981 
	C1650.803223,957.469482 1655.903076,949.051941 1651.782959,941.455322 
	C1649.913452,938.008423 1646.959595,935.153809 1644.530518,932.005127 
	C1642.357056,929.187988 1640.228638,926.335999 1638.045410,923.453186 
	C1644.945801,918.910706 1651.356567,921.300537 1652.853149,929.331299 
	C1653.763184,934.215881 1656.044922,935.784485 1660.017334,937.339050 
	C1663.886963,931.351868 1662.349609,926.365601 1658.491455,922.335510 
	C1655.340698,919.044312 1651.463989,916.186829 1647.422607,914.062500 
	C1638.356689,909.297180 1633.482056,911.402039 1628.703247,922.817383 
M1608.217163,902.312866 
	C1610.105347,903.382324 1611.993530,904.451782 1614.096924,905.643127 
	C1617.432617,900.309143 1616.462158,895.923950 1613.404297,892.072449 
	C1608.921387,886.425964 1602.937012,882.871887 1595.867920,881.336060 
	C1590.743042,880.222595 1586.801147,882.070435 1583.871338,886.411133 
	C1580.946533,890.744629 1582.122681,894.801025 1584.917480,898.403076 
	C1587.762451,902.069946 1591.203735,905.267944 1594.257324,908.781372 
	C1596.348999,911.187927 1599.283813,913.443909 1597.126831,917.299927 
	C1588.552856,918.138489 1583.842407,915.890442 1582.209229,908.410278 
	C1581.103394,903.346252 1578.179932,902.510498 1572.822754,900.546204 
	C1573.212280,905.097595 1572.640869,908.557434 1573.886597,911.140991 
	C1578.243286,920.176270 1585.888672,925.130066 1595.792480,926.396606 
	C1600.529053,927.002380 1604.228149,924.987732 1606.714233,920.894775 
	C1609.322998,916.599976 1608.405029,912.429626 1605.560547,908.811157 
	C1602.692871,905.163025 1599.177856,902.030151 1596.198853,898.460815 
	C1594.455811,896.372559 1593.206665,893.872314 1591.517944,891.215271 
	C1601.478394,888.375061 1605.202271,891.090271 1608.217163,902.312866 
M1019.942139,720.314087 
	C1010.172852,715.029053 1000.074036,718.509094 990.588989,717.777649 
	C990.588989,732.695007 990.588989,746.185303 990.588989,759.953186 
	C998.113159,759.953186 1004.764221,760.310181 1011.360657,759.862122 
	C1019.477661,759.310852 1025.568848,754.740173 1027.337158,746.979553 
	C1029.425781,737.813293 1029.776855,728.291138 1019.942139,720.314087 
M1270.280151,778.927429 
	C1269.675293,781.758972 1269.070435,784.590576 1268.395142,787.752197 
	C1270.968384,788.440430 1273.032471,788.992493 1275.370850,789.617859 
	C1277.097778,784.413208 1278.606201,779.866821 1280.193848,775.081909 
	C1286.638062,776.609253 1292.033569,778.217773 1297.545166,779.109619 
	C1304.207275,780.187744 1310.394165,776.036987 1312.167969,769.930115 
	C1314.086426,763.325012 1311.750977,756.544373 1305.336914,754.152832 
	C1297.101807,751.082336 1288.408325,749.241150 1279.319214,746.704895 
	C1276.218506,757.781494 1273.469727,767.600830 1270.280151,778.927429 
M1698.511108,981.594238 
	C1700.140747,979.099670 1702.209473,976.785400 1703.321289,974.078186 
	C1707.395264,964.158081 1703.554810,953.491577 1694.706055,949.301331 
	C1686.444580,945.389221 1676.006226,948.290710 1669.766724,956.233398 
	C1663.232666,964.551025 1663.164307,975.811462 1669.604980,982.848999 
	C1675.609985,989.410583 1685.143799,990.300598 1694.269775,985.087646 
	C1695.413086,984.434570 1696.383789,983.479736 1698.511108,981.594238 
M1214.915771,769.491089 
	C1208.800293,768.288025 1202.684692,767.085022 1195.716675,765.714294 
	C1196.445557,762.474426 1197.034058,759.858276 1197.688721,756.947876 
	C1204.485718,757.902222 1210.299683,758.718567 1216.738892,759.622681 
	C1217.033447,757.034424 1217.266357,754.988586 1217.513916,752.812988 
	C1210.844360,751.373596 1204.886230,750.087769 1199.322754,748.887085 
	C1198.781250,743.875183 1200.927856,743.201111 1204.048950,743.698853 
	C1208.962280,744.482361 1213.862915,745.362427 1218.794067,746.010864 
	C1223.773682,746.665710 1224.436890,743.958618 1223.048462,739.234558 
	C1213.592285,737.629211 1203.906250,735.984863 1193.343506,734.191650 
	C1191.195923,747.220337 1189.181641,759.439331 1187.087402,772.144165 
	C1198.215942,774.012085 1207.935425,775.643494 1217.539917,777.255615 
	C1219.119507,773.909546 1221.555786,771.092102 1214.915771,769.491089 
M916.572510,754.818420 
	C919.263672,747.788574 918.429810,741.053467 914.567810,734.734375 
	C910.380310,727.882446 904.243774,724.461792 896.115295,725.379578 
	C887.831665,726.314880 883.029602,731.630798 880.564819,739.053162 
	C877.050903,749.634827 882.349976,761.722839 891.999756,766.064941 
	C901.132935,770.174561 908.976135,766.989075 916.572510,754.818420 
M1383.964844,791.064880 
	C1382.186035,794.231079 1379.817017,797.209534 1378.738892,800.598633 
	C1375.480225,810.842773 1380.784424,822.084290 1389.980225,825.403931 
	C1399.885620,828.979736 1411.585693,822.739746 1415.425659,811.833069 
	C1419.231689,801.022644 1414.822266,789.685547 1405.253296,785.672913 
	C1397.513550,782.427246 1390.992432,784.888489 1383.964844,791.064880 
z"/>
<path fill="#E9E8F2" opacity="1.000000" stroke="none" 
	d="
M959.234131,1015.372070 
	C955.318481,1016.325012 952.098572,1017.688904 947.741272,1019.534485 
	C948.381104,1015.845947 948.941650,1012.614624 949.594727,1008.850098 
	C947.151611,1006.681396 944.498474,1004.326355 940.622681,1000.885925 
	C945.469543,1000.403381 949.064392,1000.045471 952.860718,999.667480 
	C954.223816,996.161438 955.517944,992.832642 957.157593,988.615234 
	C958.950256,992.589294 960.412781,995.831299 962.117126,999.609497 
	C965.420471,999.908569 968.961975,1000.229187 974.075623,1000.692139 
	C970.823975,1003.715515 968.344849,1006.020630 965.306030,1008.846191 
	C965.927734,1011.906067 966.626892,1015.347107 967.623169,1020.250671 
	C964.512939,1018.444458 962.221375,1017.113708 959.234131,1015.372070 
z"/>
<path fill="#E9E8F2" opacity="1.000000" stroke="none" 
	d="
M1104.783447,1120.864014 
	C1106.246826,1124.131104 1107.277832,1126.880981 1108.372559,1129.800903 
	C1112.009644,1129.970215 1115.292114,1130.123047 1120.439941,1130.362671 
	C1116.991333,1133.608521 1114.553589,1135.902954 1111.628662,1138.655884 
	C1112.243652,1141.774414 1112.925659,1145.232178 1113.875977,1150.050537 
	C1110.212280,1147.994141 1107.327881,1146.375244 1103.787231,1144.387939 
	C1101.135010,1145.952515 1098.073242,1147.758789 1093.689209,1150.345093 
	C1094.518066,1146.023193 1095.158569,1142.684204 1095.915039,1138.740112 
	C1093.486450,1136.594727 1090.822144,1134.240967 1087.019775,1130.881958 
	C1091.397705,1130.408936 1094.701782,1130.051880 1098.088867,1129.685791 
	C1100.135498,1126.633667 1102.243286,1123.490234 1104.783447,1120.864014 
z"/>
<path fill="#ECECF4" opacity="1.000000" stroke="none" 
	d="
M1609.667236,1054.312988 
	C1601.854614,1058.572632 1607.706177,1064.024170 1607.396362,1069.569580 
	C1603.780029,1067.514282 1600.571899,1065.691162 1597.254395,1063.805786 
	C1594.147827,1065.729858 1591.159546,1067.580566 1587.018799,1070.145142 
	C1588.135986,1065.561279 1588.907227,1062.396973 1589.821533,1058.645752 
	C1587.260742,1056.238770 1584.463989,1053.609985 1580.944824,1050.302246 
	C1585.492798,1049.934692 1589.034546,1049.648438 1592.741821,1049.348877 
	C1594.156494,1045.720459 1595.462280,1042.371460 1597.117920,1038.124878 
	C1599.038208,1042.290039 1600.643433,1045.771729 1602.284058,1049.330322 
	C1605.884155,1049.659790 1609.318970,1049.974121 1612.753784,1050.288452 
	C1613.116943,1050.896362 1613.480225,1051.504150 1613.843506,1052.112061 
	C1612.659058,1052.705444 1611.474731,1053.298950 1609.667236,1054.312988 
z"/>
<path fill="#ECECF4" opacity="1.000000" stroke="none" 
	d="
M912.766296,811.304932 
	C914.613647,807.899048 915.811401,804.854858 917.417236,800.773682 
	C918.638855,803.135376 919.521118,804.719666 920.287476,806.358154 
	C920.985840,807.851135 921.558411,809.402954 922.372314,811.380310 
	C925.796753,811.701050 929.338440,812.032776 932.880127,812.364502 
	C933.381836,812.886230 933.883545,813.408020 934.385254,813.929749 
	C931.423096,815.845886 928.460938,817.762024 925.423706,819.726685 
	C926.320801,823.840332 927.072388,827.286682 928.122009,832.099731 
	C924.245361,829.832336 921.346985,828.137146 917.876587,826.107361 
	C915.141418,827.750488 912.099670,829.577820 907.789490,832.167175 
	C908.634766,827.819946 909.273804,824.533203 910.036377,820.610962 
	C907.485535,818.290222 904.689941,815.746765 901.015137,812.403442 
	C905.626953,812.097351 908.871826,811.882019 912.766296,811.304932 
z"/>
<path fill="#ECECF4" opacity="1.000000" stroke="none" 
	d="
M1298.118652,1094.117432 
	C1296.420532,1097.004883 1294.041992,1099.601929 1291.166504,1102.741455 
	C1291.969849,1105.782959 1292.877686,1109.220703 1294.115234,1113.906372 
	C1290.049561,1111.529297 1287.079956,1109.793213 1283.570801,1107.741577 
	C1280.764648,1109.437500 1277.754272,1111.256836 1273.428833,1113.870972 
	C1274.344971,1109.401978 1275.022705,1106.095825 1275.803101,1102.289307 
	C1273.410156,1100.093384 1270.798706,1097.697021 1267.313965,1094.499390 
	C1271.801392,1093.941772 1275.202026,1093.519287 1278.963745,1093.051880 
	C1280.254639,1089.673950 1281.540161,1086.310425 1283.193481,1081.984375 
	C1285.134521,1086.188599 1286.744141,1089.674927 1288.456909,1093.384766 
	C1291.503784,1093.534912 1294.470947,1093.681030 1298.118652,1094.117432 
z"/>
<path fill="#E9E8F2" opacity="1.000000" stroke="none" 
	d="
M1286.512939,978.916748 
	C1282.650513,979.180420 1279.363525,979.861633 1275.639160,980.633423 
	C1275.982910,978.222595 1276.378052,975.450562 1276.818970,972.358521 
	C1274.979980,970.749023 1273.008179,969.023315 1270.248657,966.608154 
	C1273.485962,965.995728 1276.130249,965.495544 1279.327393,964.890747 
	C1280.346802,962.631836 1281.546387,959.974060 1283.119873,956.487549 
	C1284.844238,959.515991 1286.331177,962.127441 1288.029419,965.109863 
	C1290.360962,965.384521 1292.920898,965.686096 1295.891846,966.036133 
	C1293.702881,968.105347 1291.784302,969.918945 1289.854004,971.743530 
	C1290.605103,975.218323 1291.202881,977.984436 1292.100098,982.135132 
	C1289.640015,980.760315 1288.364014,980.047241 1286.512939,978.916748 
z"/>
<path fill="#E9E8F2" opacity="1.000000" stroke="none" 
	d="
M1409.819580,1210.216553 
	C1410.080200,1207.348267 1410.567993,1205.105103 1411.243896,1201.996582 
	C1409.438232,1200.533081 1407.253296,1198.762207 1403.462891,1195.690063 
	C1411.586670,1196.228516 1416.063843,1193.866943 1416.452393,1185.845703 
	C1420.656616,1190.694824 1421.323608,1198.723633 1430.877808,1195.470215 
	C1425.016968,1200.009155 1422.330933,1204.304077 1427.393555,1211.891113 
	C1422.869019,1209.796997 1420.419434,1208.663330 1417.655762,1207.384155 
	C1415.256226,1208.474609 1412.651489,1209.658081 1409.819580,1210.216553 
z"/>
<path fill="#E9E8F2" opacity="1.000000" stroke="none" 
	d="
M1500.263184,1195.723877 
	C1500.218506,1193.311279 1500.492310,1191.245972 1499.648926,1189.861084 
	C1498.528442,1188.021118 1496.536499,1186.711792 1494.283813,1184.570923 
	C1497.883667,1184.243896 1500.494507,1184.006714 1503.604736,1183.724121 
	C1504.756958,1181.303467 1505.974365,1178.746216 1507.675903,1175.171631 
	C1509.345337,1178.428589 1510.626099,1180.927246 1512.004395,1183.616089 
	C1514.849609,1183.950684 1517.713135,1184.287354 1522.716675,1184.875732 
	C1518.963135,1187.648682 1516.580078,1189.409180 1514.280029,1191.108276 
	C1514.884644,1194.141235 1515.386230,1196.656860 1516.138794,1200.432495 
	C1512.934204,1198.779297 1510.770020,1197.662842 1508.004517,1196.236206 
	C1505.817871,1197.383423 1503.275635,1198.717163 1500.084473,1200.391357 
	C1500.084473,1198.725952 1500.084473,1197.550171 1500.263184,1195.723877 
z"/>
<path fill="#E9E8F2" opacity="1.000000" stroke="none" 
	d="
M1608.563477,1100.536377 
	C1608.024658,1098.254028 1607.460815,1096.490356 1606.443726,1095.045776 
	C1605.549072,1093.775269 1604.147217,1092.861816 1601.908936,1090.826172 
	C1605.898560,1090.361084 1608.601196,1090.046021 1611.740112,1089.680176 
	C1612.741821,1087.375366 1613.777832,1084.991699 1615.290649,1081.510742 
	C1616.941650,1084.483765 1617.703735,1087.641846 1619.687012,1088.954346 
	C1621.929443,1090.438232 1625.268677,1090.264526 1629.941162,1092.608276 
	C1627.559204,1094.128052 1624.141479,1095.142090 1623.083496,1097.308472 
	C1622.001709,1099.523438 1623.234619,1102.868652 1623.464966,1105.857788 
	C1615.609863,1102.379883 1615.609863,1102.379883 1607.471680,1106.258301 
	C1607.821411,1104.221436 1608.081421,1102.707764 1608.563477,1100.536377 
z"/>
<path fill="#E9E8F2" opacity="1.000000" stroke="none" 
	d="
M1582.064697,1126.044678 
	C1584.633057,1123.484863 1586.474976,1120.976196 1588.716431,1117.923462 
	C1589.935181,1120.587769 1590.961060,1122.830566 1592.196411,1125.531006 
	C1594.846313,1125.866821 1597.724365,1126.231567 1600.602417,1126.596191 
	C1601.101929,1127.118530 1601.601318,1127.640869 1602.100830,1128.163330 
	C1599.675049,1129.657104 1597.249390,1131.150879 1594.716919,1132.710449 
	C1595.326660,1135.894287 1595.858765,1138.672241 1596.663818,1142.875000 
	C1593.356812,1141.024292 1591.214600,1139.825562 1588.443848,1138.275024 
	C1586.303955,1139.394409 1583.813232,1140.697144 1580.112183,1142.633179 
	C1580.720093,1138.938965 1581.163330,1136.245483 1581.645386,1133.316406 
	C1579.581909,1131.392822 1577.498169,1129.450317 1574.431396,1126.591309 
	C1577.664307,1126.359375 1579.501343,1126.227539 1582.064697,1126.044678 
z"/>
<path fill="#E9E8F2" opacity="1.000000" stroke="none" 
	d="
M1044.592285,1061.283447 
	C1043.693237,1058.924683 1043.518555,1056.290039 1043.213867,1051.694214 
	C1042.383789,1051.148315 1039.922485,1049.530151 1035.724609,1046.770386 
	C1040.902588,1046.067383 1043.639038,1045.695923 1046.571045,1045.297852 
	C1047.803955,1042.643921 1049.029785,1040.005127 1050.683472,1036.445190 
	C1052.193726,1039.808594 1053.321167,1042.319824 1054.639648,1045.256348 
	C1057.297974,1045.604248 1060.187134,1045.982422 1065.864868,1046.725586 
	C1061.708740,1049.272827 1059.195068,1050.813354 1057.208252,1052.031128 
	C1057.788696,1055.675903 1058.192749,1058.213867 1058.783936,1061.926025 
	C1053.929443,1060.078735 1049.541992,1055.409302 1044.592285,1061.283447 
z"/>
<path fill="#E9E8F2" opacity="1.000000" stroke="none" 
	d="
M1109.396606,925.621094 
	C1107.884155,926.530090 1107.021606,926.996094 1105.146118,928.009216 
	C1105.706543,922.077698 1107.160522,916.067200 1100.639160,912.294312 
	C1103.053711,912.006287 1105.468262,911.718201 1108.505981,911.355835 
	C1109.758545,908.817749 1111.164551,905.969177 1112.908081,902.436401 
	C1114.386353,905.731689 1115.553711,908.333801 1116.862305,911.250732 
	C1119.601196,911.590393 1122.434326,911.941772 1127.597656,912.582153 
	C1124.028076,915.127014 1121.910400,916.636902 1119.466309,918.379456 
	C1119.931274,921.292603 1120.373535,924.063354 1120.890625,927.302856 
	C1119.603638,927.023804 1118.632690,927.033508 1117.907471,926.616089 
	C1115.433228,925.191895 1113.254395,922.506836 1109.396606,925.621094 
z"/>
<path fill="#ECECF4" opacity="1.000000" stroke="none" 
	d="
M1328.276123,1012.471313 
	C1326.182861,1010.334595 1324.471680,1008.822510 1321.915405,1006.563660 
	C1325.613403,1005.961914 1328.333252,1005.519348 1331.350708,1005.028320 
	C1332.496094,1002.387939 1333.668579,999.685364 1335.103149,996.378357 
	C1336.629761,999.461365 1337.924194,1002.075623 1339.446655,1005.150208 
	C1341.928223,1005.496643 1344.696167,1005.883118 1349.767578,1006.591125 
	C1346.062988,1009.135864 1343.907959,1010.616150 1341.736450,1012.107727 
	C1342.402710,1015.526794 1342.950195,1018.336243 1343.696167,1022.164185 
	C1340.357544,1020.332520 1337.883545,1018.975220 1335.212280,1017.509644 
	C1332.916016,1018.866516 1330.686768,1020.183716 1327.346680,1022.157410 
	C1327.874023,1018.513672 1328.266113,1015.804871 1328.276123,1012.471313 
z"/>
<path fill="#E9E8F2" opacity="1.000000" stroke="none" 
	d="
M910.289673,1056.595215 
	C907.679993,1056.096924 905.342590,1054.980225 902.543701,1053.643066 
	C900.236572,1054.914062 897.670105,1056.327759 894.276245,1058.197266 
	C894.879700,1054.702881 895.364380,1051.895996 895.916565,1048.698608 
	C894.181213,1047.052002 892.305115,1045.271973 889.464111,1042.576294 
	C893.040283,1041.936035 895.691650,1041.461426 898.480896,1040.962036 
	C899.742310,1038.296021 900.988098,1035.662842 902.666504,1032.115479 
	C904.184448,1035.613892 905.301514,1038.188354 906.561707,1041.092773 
	C909.351501,1041.468750 912.237183,1041.857544 915.916443,1042.353394 
	C913.225708,1044.910034 911.108398,1046.921875 909.108398,1048.822266 
	C909.634338,1051.411011 910.098083,1053.693848 910.289673,1056.595215 
z"/>
<path fill="#E1DFEC" opacity="1.000000" stroke="none" 
	d="
M1458.320435,1167.481934 
	C1455.362671,1167.579956 1452.948242,1168.051514 1451.076904,1168.416992 
	C1449.738647,1164.704590 1448.296021,1160.702515 1447.135620,1157.483398 
	C1449.918213,1155.645508 1453.112061,1153.535889 1456.072266,1151.580688 
	C1458.617432,1153.369141 1461.734009,1155.559204 1465.326050,1158.083252 
	C1463.598511,1160.230469 1460.261230,1163.249146 1462.112183,1167.889771 
	C1461.029419,1167.878418 1459.946655,1167.866943 1458.320435,1167.481934 
z"/>
<path fill="#E1DFEC" opacity="1.000000" stroke="none" 
	d="
M1386.692139,1157.477051 
	C1383.016479,1157.097778 1380.056274,1156.868286 1376.668579,1156.605591 
	C1376.058350,1154.348755 1375.074097,1150.709839 1374.002197,1146.746216 
	C1376.152954,1145.174072 1379.464600,1142.753540 1383.190674,1140.030029 
	C1384.387085,1143.589966 1386.247681,1147.516113 1391.125366,1145.718140 
	C1389.700073,1150.283447 1388.553833,1153.955200 1386.692139,1157.477051 
z"/>
<path fill="#E1DFEC" opacity="1.000000" stroke="none" 
	d="
M1497.810791,1230.834473 
	C1502.879761,1230.457886 1506.174683,1228.892822 1506.132812,1224.373291 
	C1509.755371,1227.018921 1513.135620,1229.487427 1515.972900,1231.559570 
	C1514.889404,1234.711060 1513.611816,1238.427490 1512.563965,1241.475098 
	C1509.110107,1241.475098 1505.277100,1241.475098 1500.959473,1241.475098 
	C1503.170166,1237.478394 1500.394531,1234.338501 1497.810791,1230.834473 
z"/>
<path fill="#E9E8F2" opacity="1.000000" stroke="none" 
	d="
M1031.487305,1103.191406 
	C1032.864014,1098.595459 1031.406128,1095.366821 1028.027466,1093.451050 
	C1031.363892,1090.889038 1034.496094,1088.483765 1037.406250,1086.249146 
	C1039.509521,1088.048706 1042.502197,1090.609131 1045.928223,1093.540527 
	C1045.276245,1094.410645 1043.459473,1095.963745 1042.866455,1097.892944 
	C1042.357422,1099.548218 1043.247803,1101.633545 1043.664185,1104.539673 
	C1039.413452,1101.330200 1035.769897,1100.754395 1031.487305,1103.191406 
z"/>
<path fill="#E1DFEC" opacity="1.000000" stroke="none" 
	d="
M1503.749146,1138.636719 
	C1504.456665,1137.225708 1504.949829,1136.438721 1505.312744,1135.859497 
	C1508.498291,1138.301392 1511.577026,1140.661255 1514.702881,1143.057251 
	C1513.675781,1145.802490 1512.322388,1149.420044 1511.185669,1152.458496 
	C1507.804077,1152.458496 1504.232422,1152.458496 1500.642334,1152.458496 
	C1499.786377,1149.822998 1498.668945,1146.382446 1497.384766,1142.428467 
	C1498.658325,1141.772461 1501.096558,1140.516602 1503.749146,1138.636719 
z"/>
<path fill="#E1DFEC" opacity="1.000000" stroke="none" 
	d="
M1558.554199,1160.660889 
	C1554.547485,1161.223267 1550.499268,1161.223267 1546.875000,1161.223267 
	C1545.846802,1158.006592 1544.653687,1154.274414 1543.626099,1151.059814 
	C1546.238159,1149.203003 1549.406250,1146.950684 1553.165649,1144.278076 
	C1554.635010,1147.429321 1556.296021,1152.096313 1561.127686,1149.981445 
	C1560.149536,1153.766235 1559.331177,1156.932373 1558.554199,1160.660889 
z"/>
<path fill="#E1DFEC" opacity="1.000000" stroke="none" 
	d="
M1236.431885,1017.299194 
	C1234.937622,1018.192810 1234.055664,1018.655701 1233.496826,1018.948975 
	C1232.161987,1014.974792 1230.811157,1010.953308 1229.712769,1007.683167 
	C1232.669556,1005.628784 1235.923096,1003.368286 1238.305664,1001.712891 
	C1241.369263,1003.697021 1244.555298,1005.760498 1247.367188,1007.581665 
	C1246.171021,1010.747131 1244.785767,1014.412537 1243.277832,1018.402649 
	C1241.850464,1018.051392 1239.447266,1017.459900 1236.431885,1017.299194 
z"/>
<path fill="#E1DFEC" opacity="1.000000" stroke="none" 
	d="
M1411.071045,878.483276 
	C1411.236938,880.498413 1411.536377,881.742981 1411.857422,883.077637 
	C1407.541016,883.077637 1403.495605,883.077637 1400.102783,883.077637 
	C1399.046265,879.993103 1397.805542,876.370483 1396.394409,872.250854 
	C1399.829590,871.959900 1404.227173,871.285156 1404.210449,865.643738 
	C1407.727295,868.407166 1410.907959,870.906372 1414.605835,873.812073 
	C1413.914307,874.605164 1412.559448,876.158936 1411.071045,878.483276 
z"/>
<path fill="#E1DFEC" opacity="1.000000" stroke="none" 
	d="
M1654.150757,1055.809082 
	C1656.324829,1053.785889 1657.848022,1051.810791 1659.482056,1049.692139 
	C1662.679199,1051.553223 1661.802856,1059.465088 1669.106445,1055.146118 
	C1667.288940,1060.064331 1665.962036,1063.654907 1664.662964,1067.170166 
	C1661.603638,1067.170166 1657.699585,1067.170166 1654.294067,1067.170166 
	C1653.200195,1063.998901 1651.922852,1060.295654 1650.557983,1056.338867 
	C1651.037598,1056.260376 1652.268799,1056.058716 1654.150757,1055.809082 
z"/>
<path fill="#C6C3DC" opacity="1.000000" stroke="none" 
	d="
M1264.616333,1047.061157 
	C1261.685303,1047.114014 1259.491821,1046.961548 1257.036743,1046.791016 
	C1256.386719,1044.794800 1255.622437,1042.447266 1254.765137,1039.814331 
	C1256.782104,1038.222900 1258.947266,1036.514526 1260.850708,1035.012695 
	C1262.927368,1036.516602 1264.985840,1038.007202 1267.003906,1039.468506 
	C1266.454468,1041.928711 1265.904297,1044.392334 1264.616333,1047.061157 
z"/>
<path fill="#E1DFEC" opacity="1.000000" stroke="none" 
	d="
M998.744690,984.118835 
	C997.164917,981.881287 996.249634,979.599426 995.303223,977.240112 
	C996.980347,975.933350 998.901672,974.436218 1001.273193,972.588318 
	C1002.787415,973.745056 1004.888489,975.350098 1007.140198,977.070312 
	C1006.511047,979.186646 1005.793030,981.602112 1005.058044,984.074524 
	C1003.182678,984.074524 1001.295898,984.074524 998.744690,984.118835 
z"/>
<path fill="#C6C3DC" opacity="1.000000" stroke="none" 
	d="
M1287.169312,1249.465332 
	C1285.239746,1253.844727 1282.604004,1253.682007 1280.369385,1250.980957 
	C1279.675293,1250.141968 1280.322998,1247.052612 1281.364380,1246.125488 
	C1284.919922,1242.959839 1286.346069,1245.803833 1287.169312,1249.465332 
z"/>
<path fill="#ECECF4" opacity="1.000000" stroke="none" 
	d="
M1413.266357,773.473450 
	C1412.613770,773.803101 1412.855713,773.793884 1412.950195,773.866333 
	C1413.458740,770.114380 1413.872925,766.289978 1414.362793,761.766174 
	C1412.052002,759.731445 1409.369385,757.369263 1406.022827,754.422485 
	C1410.195801,753.939575 1413.711182,753.532837 1417.513184,753.092896 
	C1419.109131,749.741699 1420.764404,746.266174 1422.758179,742.079712 
	C1424.484375,746.378784 1425.814941,749.692566 1427.195801,753.131775 
	C1430.975464,753.469421 1434.510376,753.785278 1439.499634,754.230957 
	C1435.637817,757.356323 1432.949097,759.532349 1430.147705,761.799500 
	C1430.931641,765.511719 1431.656494,768.943726 1432.669800,773.741211 
	C1428.541382,771.228394 1425.552734,769.409302 1422.360840,767.466492 
	C1419.385254,769.467590 1416.652100,771.305725 1413.266357,773.473450 
z"/>
<path fill="#149D4F" opacity="1.000000" stroke="none" 
	d="
M1128.378052,745.804626 
	C1126.503540,750.420166 1124.446533,754.972046 1122.810303,759.670532 
	C1121.409790,763.691895 1119.075562,764.836365 1114.348633,762.778503 
	C1112.790894,755.659363 1111.112793,747.990356 1109.434692,740.321350 
	C1109.033203,740.333740 1108.631592,740.346130 1108.230103,740.358521 
	C1107.355225,747.446777 1106.480225,754.534973 1105.577637,761.847046 
	C1103.376343,761.847046 1101.530518,761.847046 1098.622314,761.847046 
	C1099.815430,747.935303 1100.965576,734.522339 1102.165649,720.528870 
	C1105.710205,720.528870 1108.836914,720.528870 1112.721924,720.528870 
	C1114.633911,729.338989 1116.514404,738.003540 1118.900635,748.998535 
	C1123.070312,738.948547 1126.441284,730.823975 1129.843140,722.624634 
	C1133.096069,722.624634 1135.978149,722.624634 1138.592651,722.624634 
	C1139.223145,723.603088 1139.908325,724.168457 1139.874878,724.687561 
	C1139.107178,736.613708 1138.297119,748.537415 1137.410156,760.455261 
	C1137.088867,764.771667 1135.035400,766.442932 1129.886963,763.897949 
	C1130.196045,758.693298 1130.524414,753.164368 1131.148804,746.380127 
	C1131.444824,743.722351 1131.444824,742.319885 1131.444824,740.917358 
	C1131.087524,740.856506 1130.730225,740.795593 1130.373047,740.734741 
	C1129.708008,742.424683 1129.042969,744.114685 1128.378052,745.804626 
z"/>
<path fill="#169D50" opacity="1.000000" stroke="none" 
	d="
M1536.214355,856.184448 
	C1538.115967,853.058594 1539.682373,850.581177 1541.612915,847.527771 
	C1552.049072,853.420166 1562.101074,859.095703 1572.604004,865.025818 
	C1571.461060,867.468018 1570.532593,869.451660 1569.242065,872.208984 
	C1560.765747,867.508911 1552.725830,863.050781 1544.294067,858.375366 
	C1542.802246,860.676758 1541.605835,862.522217 1539.854492,865.223938 
	C1546.751587,869.217285 1553.269897,872.991272 1560.242065,877.028076 
	C1559.275757,879.132751 1558.509766,880.800964 1557.304321,883.426331 
	C1550.254761,879.662903 1543.634277,876.128479 1536.260986,872.192139 
	C1534.581543,874.904480 1532.921509,877.585571 1530.806641,881.001282 
	C1539.711182,886.192444 1547.963013,891.003174 1556.591797,896.033569 
	C1556.280396,897.433472 1556.168213,898.698181 1555.697144,899.810974 
	C1555.331421,900.675110 1554.517944,901.349609 1553.173950,903.009583 
	C1542.660889,897.131653 1532.087524,891.220093 1520.230103,884.590576 
	C1525.591675,875.080322 1530.735474,865.956665 1536.214355,856.184448 
z"/>
<path fill="#149D4F" opacity="1.000000" stroke="none" 
	d="
M1054.711182,741.796875 
	C1053.206665,744.962463 1052.599365,747.940308 1051.845459,751.636169 
	C1062.584229,752.220154 1072.106812,752.737915 1082.237671,753.288818 
	C1082.237671,755.871338 1082.237671,757.957947 1082.237671,760.141113 
	C1069.836670,760.141113 1057.726318,760.141113 1044.355957,760.141113 
	C1044.908691,745.766357 1045.425171,732.333618 1045.997070,717.461853 
	C1058.003662,717.552429 1069.694580,717.935242 1081.782715,718.267578 
	C1081.782715,721.067993 1081.782715,722.972717 1081.782715,725.587524 
	C1072.712891,725.587524 1063.564453,725.587524 1053.720947,725.587524 
	C1053.415161,728.310791 1053.178833,730.415649 1052.809204,733.706604 
	C1059.547729,733.917175 1065.742065,734.200928 1071.939087,734.275513 
	C1076.760132,734.333557 1077.459717,736.807556 1075.900757,741.609070 
	C1069.298584,741.609070 1062.453491,741.609070 1054.711182,741.796875 
z"/>
<path fill="#169D50" opacity="1.000000" stroke="none" 
	d="
M970.494751,749.863708 
	C971.165894,752.905762 971.864197,755.171448 971.965576,757.463501 
	C972.169800,762.080811 969.243103,761.995789 965.972473,761.126587 
	C960.419128,744.116577 960.419128,744.116577 943.776978,748.594788 
	C943.776978,753.006287 943.776978,757.562317 943.776978,762.738586 
	C941.282715,763.013977 939.190247,763.244995 936.293091,763.564819 
	C935.411926,749.434875 934.568970,735.917114 933.669556,721.494629 
	C943.441895,719.650391 952.710815,719.007263 961.835938,719.976501 
	C970.735046,720.921814 975.110168,730.648438 970.444946,739.189819 
	C968.356873,743.012939 968.128967,745.741150 970.494751,749.863708 
M945.221069,739.209839 
	C949.194214,738.881592 953.164795,738.516052 957.141296,738.235840 
	C960.880310,737.972351 963.914551,736.576782 963.568909,732.365662 
	C963.214539,728.047058 959.728088,727.509949 956.161499,727.682739 
	C951.592712,727.904053 947.025574,728.159424 941.420837,728.454712 
	C942.312683,732.636414 942.971619,735.726196 945.221069,739.209839 
z"/>
<path fill="#169D50" opacity="1.000000" stroke="none" 
	d="
M1499.693604,868.811462 
	C1504.037109,856.475952 1502.173706,856.891174 1486.321289,850.010986 
	C1484.119751,853.936157 1481.881958,857.925842 1479.220825,862.670532 
	C1476.962280,861.748230 1474.747681,860.843872 1472.052124,859.743164 
	C1478.674561,846.937195 1484.905884,834.887573 1491.562866,822.015137 
	C1498.574097,825.504700 1505.130493,828.538147 1511.469971,831.972168 
	C1523.762085,838.630676 1524.048706,850.100952 1512.240723,857.471252 
	C1511.405273,857.992676 1510.519043,858.432739 1510.296875,858.555847 
	C1508.561157,864.449951 1506.992554,869.776733 1505.276978,875.602600 
	C1501.309570,874.594055 1497.620605,874.703125 1499.693604,868.811462 
M1493.636230,834.812744 
	C1492.571167,837.107727 1491.506104,839.402771 1490.138062,842.350952 
	C1494.837402,844.702881 1498.946045,846.748352 1503.044434,848.813538 
	C1506.448486,850.528687 1509.661865,850.597046 1511.500854,846.794434 
	C1513.090332,843.507568 1511.429077,840.907349 1508.379761,839.473572 
	C1503.920776,837.377014 1499.325684,835.570007 1493.636230,834.812744 
z"/>
<path fill="#149D4F" opacity="1.000000" stroke="none" 
	d="
M1346.298096,793.728760 
	C1341.510864,792.167236 1337.479980,790.871460 1333.082764,789.457947 
	C1331.189819,794.536926 1329.588623,798.833191 1327.770142,803.712708 
	C1325.585815,803.112549 1323.534302,802.548828 1320.399414,801.687439 
	C1324.889038,788.134705 1329.194214,775.138367 1333.720581,761.474426 
	C1341.842041,763.974304 1349.188843,765.841187 1356.239380,768.495239 
	C1367.862061,772.870422 1369.622314,784.199951 1360.275391,792.689087 
	C1359.314575,793.561707 1358.252319,794.322815 1357.161255,795.196472 
	C1357.161255,798.293396 1357.434937,801.276001 1357.079346,804.181519 
	C1356.765747,806.743713 1355.749634,809.219971 1354.933228,812.128235 
	C1352.748535,811.708923 1350.912109,811.356445 1349.083374,811.005432 
	C1347.653198,805.096069 1353.314697,798.779053 1346.298096,793.728760 
M1346.908081,773.935303 
	C1344.146362,773.259460 1341.384644,772.583557 1338.193481,771.802612 
	C1337.209717,775.384521 1336.449829,778.151367 1335.510376,781.572021 
	C1340.406372,783.172852 1344.739624,784.706848 1349.145508,785.992981 
	C1352.627930,787.009705 1356.199219,786.756958 1357.373901,782.754761 
	C1358.555420,778.729675 1355.708984,776.739563 1352.169067,775.666016 
	C1350.898804,775.280823 1349.666016,774.771667 1346.908081,773.935303 
z"/>
<path fill="#169D50" opacity="1.000000" stroke="none" 
	d="
M1628.708862,922.079773 
	C1633.482056,911.402039 1638.356689,909.297180 1647.422607,914.062500 
	C1651.463989,916.186829 1655.340698,919.044312 1658.491455,922.335510 
	C1662.349609,926.365601 1663.886963,931.351868 1660.017334,937.339050 
	C1656.044922,935.784485 1653.763184,934.215881 1652.853149,929.331299 
	C1651.356567,921.300537 1644.945801,918.910706 1638.045410,923.453186 
	C1640.228638,926.335999 1642.357056,929.187988 1644.530518,932.005127 
	C1646.959595,935.153809 1649.913452,938.008423 1651.782959,941.455322 
	C1655.903076,949.051941 1650.803223,957.469482 1642.263672,957.755981 
	C1633.132935,958.062378 1619.575806,947.075073 1618.419434,938.117676 
	C1618.149658,936.027649 1619.111572,933.778564 1619.705200,930.509949 
	C1624.016357,932.521729 1627.586792,933.407288 1627.746704,938.531738 
	C1627.917358,944.000305 1631.982788,946.664551 1636.369263,948.405823 
	C1638.097900,949.092041 1640.494141,948.096741 1642.586426,947.867065 
	C1642.362671,946.046631 1642.679932,943.889282 1641.800781,942.477051 
	C1640.063354,939.686951 1637.413452,937.474243 1635.598755,934.721008 
	C1633.079590,930.898682 1630.981567,926.798584 1628.708862,922.079773 
z"/>
<path fill="#149D4F" opacity="1.000000" stroke="none" 
	d="
M1607.697266,901.770020 
	C1605.202271,891.090271 1601.478394,888.375061 1591.517944,891.215271 
	C1593.206665,893.872314 1594.455811,896.372559 1596.198853,898.460815 
	C1599.177856,902.030151 1602.692871,905.163025 1605.560547,908.811157 
	C1608.405029,912.429626 1609.322998,916.599976 1606.714233,920.894775 
	C1604.228149,924.987732 1600.529053,927.002380 1595.792480,926.396606 
	C1585.888672,925.130066 1578.243286,920.176270 1573.886597,911.140991 
	C1572.640869,908.557434 1573.212280,905.097595 1572.822754,900.546204 
	C1578.179932,902.510498 1581.103394,903.346252 1582.209229,908.410278 
	C1583.842407,915.890442 1588.552856,918.138489 1597.126831,917.299927 
	C1599.283813,913.443909 1596.348999,911.187927 1594.257324,908.781372 
	C1591.203735,905.267944 1587.762451,902.069946 1584.917480,898.403076 
	C1582.122681,894.801025 1580.946533,890.744629 1583.871338,886.411133 
	C1586.801147,882.070435 1590.743042,880.222595 1595.867920,881.336060 
	C1602.937012,882.871887 1608.921387,886.425964 1613.404297,892.072449 
	C1616.462158,895.923950 1617.432617,900.309143 1614.096924,905.643127 
	C1611.993530,904.451782 1610.105347,903.382324 1607.697266,901.770020 
z"/>
<path fill="#119B4D" opacity="1.000000" stroke="none" 
	d="
M1020.593628,720.799988 
	C1029.776855,728.291138 1029.425781,737.813293 1027.337158,746.979553 
	C1025.568848,754.740173 1019.477661,759.310852 1011.360657,759.862122 
	C1004.764221,760.310181 998.113159,759.953186 990.588989,759.953186 
	C990.588989,746.185303 990.588989,732.695007 990.588989,717.777649 
	C1000.074036,718.509094 1010.172852,715.029053 1020.593628,720.799988 
M997.976746,744.586060 
	C998.169861,746.816833 998.362915,749.047607 998.591797,751.692078 
	C1006.503967,751.941162 1014.661987,754.227905 1019.244568,745.841797 
	C1022.031372,740.741821 1022.023132,734.665771 1018.196472,729.908386 
	C1012.729126,723.111450 1005.328796,725.769287 997.954102,726.179565 
	C997.954102,732.227722 997.954102,737.465088 997.976746,744.586060 
z"/>
<path fill="#189E52" opacity="1.000000" stroke="none" 
	d="
M1451.109009,847.116333 
	C1442.025879,847.644287 1434.355835,845.013428 1430.749634,836.055786 
	C1427.231445,827.316833 1428.885742,818.988281 1435.224976,811.891235 
	C1440.856567,805.586548 1450.010010,803.242371 1457.050659,806.544739 
	C1464.725708,810.144775 1468.230835,816.421265 1467.972778,825.557678 
	C1463.548096,825.225159 1461.188843,823.731140 1459.166016,820.055542 
	C1455.056396,812.587524 1448.776978,811.319153 1442.837280,815.947571 
	C1436.807007,820.646545 1435.320190,830.393921 1439.962524,835.532349 
	C1443.649292,839.613159 1448.031250,839.596130 1452.955322,837.174988 
	C1453.664429,834.156006 1446.609619,831.957153 1452.476318,827.834290 
	C1456.463989,829.430054 1460.986572,831.239868 1466.575195,833.476257 
	C1463.500244,840.219116 1460.682983,846.397034 1457.479858,853.421265 
	C1455.416016,851.744629 1454.055054,850.638916 1452.807495,848.719482 
	C1452.317017,847.642639 1451.713013,847.379456 1451.109009,847.116333 
z"/>
<path fill="#169D50" opacity="1.000000" stroke="none" 
	d="
M1270.500488,778.173767 
	C1273.469727,767.600830 1276.218506,757.781494 1279.319214,746.704895 
	C1288.408325,749.241150 1297.101807,751.082336 1305.336914,754.152832 
	C1311.750977,756.544373 1314.086426,763.325012 1312.167969,769.930115 
	C1310.394165,776.036987 1304.207275,780.187744 1297.545166,779.109619 
	C1292.033569,778.217773 1286.638062,776.609253 1280.193848,775.081909 
	C1278.606201,779.866821 1277.097778,784.413208 1275.370850,789.617859 
	C1273.032471,788.992493 1270.968384,788.440430 1268.395142,787.752197 
	C1269.070435,784.590576 1269.675293,781.758972 1270.500488,778.173767 
M1287.176758,768.268066 
	C1290.382568,769.082642 1293.571167,769.974060 1296.798828,770.690491 
	C1300.113281,771.426270 1302.957275,770.494019 1303.828491,767.015381 
	C1304.688354,763.581299 1302.749023,761.249268 1299.453125,760.348328 
	C1294.744751,759.061218 1289.974976,757.999390 1284.343750,756.624634 
	C1284.538452,761.032471 1278.428711,764.790161 1287.176758,768.268066 
z"/>
<path fill="#149D4F" opacity="1.000000" stroke="none" 
	d="
M1697.972900,982.129517 
	C1696.383789,983.479736 1695.413086,984.434570 1694.269775,985.087646 
	C1685.143799,990.300598 1675.609985,989.410583 1669.604980,982.848999 
	C1663.164307,975.811462 1663.232666,964.551025 1669.766724,956.233398 
	C1676.006226,948.290710 1686.444580,945.389221 1694.706055,949.301331 
	C1703.554810,953.491577 1707.395264,964.158081 1703.321289,974.078186 
	C1702.209473,976.785400 1700.140747,979.099670 1697.972900,982.129517 
M1683.829590,956.074646 
	C1677.875366,957.895386 1674.354248,961.964539 1673.189575,967.987915 
	C1672.051758,973.873291 1675.295166,978.992859 1680.638306,980.113525 
	C1687.725342,981.599976 1695.141357,976.125488 1696.433838,968.453308 
	C1697.725586,960.786316 1694.616943,957.222534 1683.829590,956.074646 
z"/>
<path fill="#189E52" opacity="1.000000" stroke="none" 
	d="
M1215.684448,769.622192 
	C1221.555786,771.092102 1219.119507,773.909546 1217.539917,777.255615 
	C1207.935425,775.643494 1198.215942,774.012085 1187.087402,772.144165 
	C1189.181641,759.439331 1191.195923,747.220337 1193.343506,734.191650 
	C1203.906250,735.984863 1213.592285,737.629211 1223.048462,739.234558 
	C1224.436890,743.958618 1223.773682,746.665710 1218.794067,746.010864 
	C1213.862915,745.362427 1208.962280,744.482361 1204.048950,743.698853 
	C1200.927856,743.201111 1198.781250,743.875183 1199.322754,748.887085 
	C1204.886230,750.087769 1210.844360,751.373596 1217.513916,752.812988 
	C1217.266357,754.988586 1217.033447,757.034424 1216.738892,759.622681 
	C1210.299683,758.718567 1204.485718,757.902222 1197.688721,756.947876 
	C1197.034058,759.858276 1196.445557,762.474426 1195.716675,765.714294 
	C1202.684692,767.085022 1208.800293,768.288025 1215.684448,769.622192 
z"/>
<path fill="#149D4F" opacity="1.000000" stroke="none" 
	d="
M916.303589,755.560791 
	C908.976135,766.989075 901.132935,770.174561 891.999756,766.064941 
	C882.349976,761.722839 877.050903,749.634827 880.564819,739.053162 
	C883.029602,731.630798 887.831665,726.314880 896.115295,725.379578 
	C904.243774,724.461792 910.380310,727.882446 914.567810,734.734375 
	C918.429810,741.053467 919.263672,747.788574 916.303589,755.560791 
M902.017395,734.002747 
	C890.703735,733.393738 884.653198,741.397827 888.718628,751.595215 
	C890.709778,756.589600 895.745239,760.086304 900.208374,759.573792 
	C904.843506,759.041565 908.943359,754.785400 909.734558,749.388489 
	C910.632019,743.267639 908.569397,738.291931 902.017395,734.002747 
z"/>
<path fill="#119B4D" opacity="1.000000" stroke="none" 
	d="
M1384.498535,790.524780 
	C1390.992432,784.888489 1397.513550,782.427246 1405.253296,785.672913 
	C1414.822266,789.685547 1419.231689,801.022644 1415.425659,811.833069 
	C1411.585693,822.739746 1399.885620,828.979736 1389.980225,825.403931 
	C1380.784424,822.084290 1375.480225,810.842773 1378.738892,800.598633 
	C1379.817017,797.209534 1382.186035,794.231079 1384.498535,790.524780 
M1405.855347,795.735657 
	C1402.171631,791.950256 1397.985718,791.101257 1393.359009,793.821655 
	C1388.411255,796.730896 1385.942505,801.164856 1385.936279,806.896667 
	C1385.930542,812.121277 1388.671997,816.499023 1392.883667,817.764771 
	C1397.874512,819.264771 1402.079346,817.606384 1405.192017,813.674927 
	C1409.233398,808.570435 1409.757568,802.915283 1405.855347,795.735657 
z"/>
<path fill="#C6C3DC" opacity="1.000000" stroke="none" 
	d="
M1128.773682,745.933105 
	C1129.042969,744.114685 1129.708008,742.424683 1130.373047,740.734741 
	C1130.730225,740.795593 1131.087524,740.856506 1131.444824,740.917358 
	C1131.444824,742.319885 1131.444824,743.722351 1131.119141,745.589478 
	C1130.793335,746.054016 1129.982178,746.244751 1129.982178,746.244751 
	C1129.982178,746.244751 1129.169312,746.061646 1128.773682,745.933105 
z"/>
<path fill="#EEF8F2" opacity="1.000000" stroke="none" 
	d="
M944.425781,739.012939 
	C942.971619,735.726196 942.312683,732.636414 941.420837,728.454712 
	C947.025574,728.159424 951.592712,727.904053 956.161499,727.682739 
	C959.728088,727.509949 963.214539,728.047058 963.568909,732.365662 
	C963.914551,736.576782 960.880310,737.972351 957.141296,738.235840 
	C953.164795,738.516052 949.194214,738.881592 944.425781,739.012939 
z"/>
<path fill="#EEF8F2" opacity="1.000000" stroke="none" 
	d="
M1494.212402,834.226196 
	C1499.325684,835.570007 1503.920776,837.377014 1508.379761,839.473572 
	C1511.429077,840.907349 1513.090332,843.507568 1511.500854,846.794434 
	C1509.661865,850.597046 1506.448486,850.528687 1503.044434,848.813538 
	C1498.946045,846.748352 1494.837402,844.702881 1490.138062,842.350952 
	C1491.506104,839.402771 1492.571167,837.107727 1494.212402,834.226196 
z"/>
<path fill="#EEF8F2" opacity="1.000000" stroke="none" 
	d="
M1347.662109,774.127197 
	C1349.666016,774.771667 1350.898804,775.280823 1352.169067,775.666016 
	C1355.708984,776.739563 1358.555420,778.729675 1357.373901,782.754761 
	C1356.199219,786.756958 1352.627930,787.009705 1349.145508,785.992981 
	C1344.739624,784.706848 1340.406372,783.172852 1335.510376,781.572021 
	C1336.449829,778.151367 1337.209717,775.384521 1338.193481,771.802612 
	C1341.384644,772.583557 1344.146362,773.259460 1347.662109,774.127197 
z"/>
<path fill="#F7FAF9" opacity="1.000000" stroke="none" 
	d="
M997.965454,743.644226 
	C997.954102,737.465088 997.954102,732.227722 997.954102,726.179565 
	C1005.328796,725.769287 1012.729126,723.111450 1018.196472,729.908386 
	C1022.023132,734.665771 1022.031372,740.741821 1019.244568,745.841797 
	C1014.661987,754.227905 1006.503967,751.941162 998.591797,751.692078 
	C998.362915,749.047607 998.169861,746.816833 997.965454,743.644226 
z"/>
<path fill="#F7FAF9" opacity="1.000000" stroke="none" 
	d="
M1451.376099,847.382202 
	C1451.713013,847.379456 1452.317017,847.642639 1452.554199,848.037781 
	C1452.187256,848.169739 1451.643188,847.648132 1451.376099,847.382202 
z"/>
<path fill="#EEF8F2" opacity="1.000000" stroke="none" 
	d="
M1286.365234,768.101562 
	C1278.428711,764.790161 1284.538452,761.032471 1284.343750,756.624634 
	C1289.974976,757.999390 1294.744751,759.061218 1299.453125,760.348328 
	C1302.749023,761.249268 1304.688354,763.581299 1303.828491,767.015381 
	C1302.957275,770.494019 1300.113281,771.426270 1296.798828,770.690491 
	C1293.571167,769.974060 1290.382568,769.082642 1286.365234,768.101562 
z"/>
<path fill="#F7FAF9" opacity="1.000000" stroke="none" 
	d="
M1684.632202,955.959351 
	C1694.616943,957.222534 1697.725586,960.786316 1696.433838,968.453308 
	C1695.141357,976.125488 1687.725342,981.599976 1680.638306,980.113525 
	C1675.295166,978.992859 1672.051758,973.873291 1673.189575,967.987915 
	C1674.354248,961.964539 1677.875366,957.895386 1684.632202,955.959351 
z"/>
<path fill="#F7FAF9" opacity="1.000000" stroke="none" 
	d="
M902.762085,734.318726 
	C908.569397,738.291931 910.632019,743.267639 909.734558,749.388489 
	C908.943359,754.785400 904.843506,759.041565 900.208374,759.573792 
	C895.745239,760.086304 890.709778,756.589600 888.718628,751.595215 
	C884.653198,741.397827 890.703735,733.393738 902.762085,734.318726 
z"/>
<path fill="#EEF8F2" opacity="1.000000" stroke="none" 
	d="
M1406.345825,796.378418 
	C1409.757568,802.915283 1409.233398,808.570435 1405.192017,813.674927 
	C1402.079346,817.606384 1397.874512,819.264771 1392.883667,817.764771 
	C1388.671997,816.499023 1385.930542,812.121277 1385.936279,806.896667 
	C1385.942505,801.164856 1388.411255,796.730896 1393.359009,793.821655 
	C1397.985718,791.101257 1402.171631,791.950256 1406.345825,796.378418 
z"/>
</svg>